<svg width="166" height="194" viewBox="0 0 166 194" fill="none" xmlns="http://www.w3.org/2000/svg">
<path d="M83 153.5H123.5M73.5 172H132.5" stroke="#34558B" stroke-width="5"/>
<path d="M136 3H30C15.0883 3 3 15.0883 3 30V164C3 178.912 15.0883 191 30 191H136C150.912 191 163 178.912 163 164V30C163 15.0883 150.912 3 136 3Z" fill="#AE92FE" stroke="#21213F" stroke-width="5"/>
<ellipse cx="58" cy="82.5" rx="10" ry="8.5" fill="#1A1937"/>
<ellipse cx="106" cy="82.5" rx="10" ry="8.5" fill="#212141"/>
<path d="M38 105L62 118M132.5 105L106.5 118M106.5 118H84.25H62M106.5 118H62" stroke="#222241" stroke-width="5"/>
<path d="M32.8968 164.815L41.2619 172.431L57.5 144M26.5 152.631H51.1032V177H26.5V152.631Z" stroke="#212241" stroke-width="5"/>
<path d="M32.5 35H138.5M47 48.5H121.5M94 153H132.5M80.5 171H147" stroke="black" stroke-width="5"/>
</svg>
